<?xml version="1.0" encoding="UTF-8" standalone="no"?>
<!-- Generator: Adobe Illustrator 16.0.0, SVG Export Plug-In . SVG Version: 6.00 Build 0)  -->

<svg
   xmlns:dc="http://purl.org/dc/elements/1.1/"
   xmlns:cc="http://creativecommons.org/ns#"
   xmlns:rdf="http://www.w3.org/1999/02/22-rdf-syntax-ns#"
   xmlns:svg="http://www.w3.org/2000/svg"
   xmlns="http://www.w3.org/2000/svg"
   xmlns:sodipodi="http://sodipodi.sourceforge.net/DTD/sodipodi-0.dtd"
   xmlns:inkscape="http://www.inkscape.org/namespaces/inkscape"
   version="1.1"
   id="svg2408"
   x="0px"
   y="0px"
   width="800.073px"
   height="678.559px"
   viewBox="-352.037 -291.281 800.073 678.559"
   enable-background="new -352.037 -291.281 800.073 678.559"
   xml:space="preserve"
   sodipodi:docname="amazon.svg"
   inkscape:version="0.92.1 r15371"><metadata
     id="metadata3764"><rdf:RDF><cc:Work
         rdf:about=""><dc:format>image/svg+xml</dc:format><dc:type
           rdf:resource="http://purl.org/dc/dcmitype/StillImage" /></cc:Work></rdf:RDF></metadata><defs
     id="defs3762" /><sodipodi:namedview
     pagecolor="#ffffff"
     bordercolor="#666666"
     borderopacity="1"
     objecttolerance="10"
     gridtolerance="10"
     guidetolerance="10"
     inkscape:pageopacity="0"
     inkscape:pageshadow="2"
     inkscape:window-width="1680"
     inkscape:window-height="991"
     id="namedview3760"
     showgrid="false"
     inkscape:zoom="0.34779583"
     inkscape:cx="400.0365"
     inkscape:cy="339.27951"
     inkscape:window-x="0"
     inkscape:window-y="630"
     inkscape:window-maximized="1"
     inkscape:current-layer="svg2408" /><filter
     id="filter3174"
     color-interpolation-filters="sRGB"><feGaussianBlur
       id="feGaussianBlur3176"
       stdDeviation="1.71" /></filter><g
     id="layer2"
     display="none"><g
       id="rect3745"
       display="inline"
       opacity="0.9"
       filter="url(#filter3174)"
       enable-background="new    "><linearGradient
         id="SVGID_1_"
         gradientUnits="userSpaceOnUse"
         x1="46.2183"
         y1="2.4243"
         x2="46.2183"
         y2="87.9224"
         gradientTransform="matrix(1.0059 0 0 -0.9942 1.5103 94.4081)"><stop
           offset="0"
           style="stop-color:#000000"
           id="stop3744" /><stop
           offset="1"
           style="stop-color:#000000;stop-opacity:0.5882"
           id="stop3746" /></linearGradient><path
         fill="url(#SVGID_1_)"
         d="M11,7h74c3.313,0,6,2.687,6,6v73c0,3.313-2.687,6-6,6H11c-3.313,0-6-2.687-6-6V13    C5,9.687,7.687,7,11,7z"
         id="path3749" /></g></g><g
     id="g3757"><path
       id="path3673"
       inkscape:connector-curvature="0"
       fill="#333333"
       d="M261.789,134.426   c-16.679-22.826-34.57-41.397-34.57-83.872v-141c0-59.759,4.331-114.619-40.186-155.732c-35.041-33.34-93.25-45.103-137.767-45.103   c-87.066,0-184.192,32.13-204.56,138.599c-2.156,11.309,6.146,17.229,13.672,18.893l88.655,9.493   c8.302-0.417,14.297-8.491,15.904-16.623c7.602-36.688,38.654-54.313,73.545-54.313c18.817,0,40.186,6.808,51.324,23.507   c12.822,18.589,11.101,44.138,11.101,65.602v11.819C45.882-88.441-23.483-84.545-73.144-63.006   c-57.281,24.546-97.505,74.491-97.505,147.903c0,94.082,59.854,141.114,136.916,141.114c65.035,0,100.626-15.186,150.796-65.791   c16.643,23.865,22.089,35.363,52.441,60.345c6.807,3.594,15.583,3.252,21.614-2.155l0.021-0.02l0.207,0.227   c18.268-16.074,51.438-44.592,70.141-60.098C268.956,152.448,267.632,142.633,261.789,134.426z M81.794,93.767   c-14.522,25.53-37.652,41.15-63.352,41.15c-35.042,0-55.618-26.476-55.618-65.641c0-77.1,69.933-91.094,136.065-91.094v19.535   h0.019C98.908,32.986,99.76,62.354,81.794,93.767z" /><g
       id="g3717"
       transform="matrix(4.0940394,0,0,4.0940394,105.99043,-56.114346)"><path
         id="path3719"
         inkscape:connector-curvature="0"
         fill="#FF9201"
         d="M64.762,84.122c-21.39,15.782-52.41,24.179-79.125,24.179    c-37.427,0-71.14-13.834-96.65-36.865c-2.001-1.811-0.215-4.284,2.189-2.878c27.527,16.018,61.562,25.66,96.714,25.66    c23.716,0,49.781-4.917,73.764-15.096C65.272,77.592,68.304,81.512,64.762,84.122L64.762,84.122z" /><path
         id="path3721"
         inkscape:connector-curvature="0"
         fill="#FF9201"
         d="M73.663,73.956c-2.734-3.499-18.091-1.658-24.978-0.826    c-2.095,0.243-2.417-1.575-0.535-2.909c12.246-8.601,32.313-6.112,34.647-3.237c2.352,2.915-0.614,23.03-12.093,32.626    c-1.766,1.481-3.443,0.701-2.663-1.253C70.623,91.9,76.407,77.461,73.663,73.956z" /></g></g><path
     style="fill:#ffffff;stroke-width:2.8752501"
     d="m 282.90645,512.04147 c -48.38018,-10.51099 -84.49476,-46.37954 -95.8271,-95.17426 -4.84897,-20.87868 -4.28591,-63.01835 1.11872,-83.72535 7.27894,-27.88815 18.25329,-46.46519 40.44778,-68.4688 38.50135,-38.17022 87.1183,-53.80712 198.70552,-63.9106 l 23.00201,-2.08268 0.83069,-25.1545 c 1.09142,-33.04938 -2.79638,-46.57586 -17.65446,-61.42364 -14.86255,-14.852246 -34.40088,-19.902623 -60.37851,-15.606968 -23.97667,3.964778 -40.35058,14.482878 -50.736,32.591238 -4.72018,8.23027 -8.59428,17.08504 -8.60912,19.67728 -0.0149,2.59223 -2.33318,7.56119 -5.15187,11.04212 l -5.12489,6.32897 -47.34842,-4.93298 c -51.13999,-5.32799 -57.41181,-7.70719 -57.41181,-21.77898 0,-12.58144 12.8467,-44.856161 24.71217,-62.084283 21.88365,-31.77409 57.16104,-54.782235 103.40329,-67.4403149 18.92148,-5.1794534 30.96614,-6.2887967 70.2768,-6.4726722 41.09335,-0.1922133 50.44232,0.6450794 69.86622,6.2572156 57.76366,16.6896115 90.63944,46.0583735 104.87058,93.6835145 3.55956,11.91222 4.75856,39.53996 6.13305,141.318 1.93148,143.01948 0.33284,132.87785 27.10912,171.97794 7.37841,10.77431 13.41529,20.65841 13.41529,21.96464 0,4.14001 -9.18568,13.13118 -42.5282,41.62758 -42.28119,36.13589 -43.37183,36.60846 -58.86871,25.50729 -10.59164,-7.58729 -37.62934,-38.91872 -45.09053,-52.25111 -2.11331,-3.77624 -5.12419,-2.09534 -17.9149,10.00161 -20.30373,19.20242 -43.47738,34.34866 -63.11145,41.24946 -33.29641,11.70276 -74.89005,14.50305 -108.13527,7.28028 z M 404.74627,416.9698 c 16.92216,-10.46217 30.14384,-27.34667 38.58649,-49.27618 5.17926,-13.45295 6.66611,-24.44425 7.79161,-57.5979 l 1.39091,-40.97231 -19.77008,0.0499 c -42.4001,0.10708 -82.16867,14.07676 -100.26781,35.22156 -16.52514,19.30589 -23.21951,53.28336 -15.77705,80.07675 10.84936,39.05843 52.5432,54.44783 88.04593,32.49817 z"
     id="path3766"
     inkscape:connector-curvature="0"
     transform="translate(-352.037,-291.281)" /></svg>