<?xml version="1.0" encoding="UTF-8" standalone="no"?>
<svg
   xmlns:dc="http://purl.org/dc/elements/1.1/"
   xmlns:cc="http://creativecommons.org/ns#"
   xmlns:rdf="http://www.w3.org/1999/02/22-rdf-syntax-ns#"
   xmlns:svg="http://www.w3.org/2000/svg"
   xmlns="http://www.w3.org/2000/svg"
   xmlns:xlink="http://www.w3.org/1999/xlink"
   xmlns:sodipodi="http://sodipodi.sourceforge.net/DTD/sodipodi-0.dtd"
   xmlns:inkscape="http://www.inkscape.org/namespaces/inkscape"
   height="185"
   viewBox="270.7 295 61.0278 185"
   width="185"
   version="1.1"
   id="svg26"
   sodipodi:docname="anghami-logo-colored-1.svg"
   inkscape:version="0.92.4 (5da689c313, 2019-01-14)">
  <metadata
     id="metadata32">
    <rdf:RDF>
      <cc:Work
         rdf:about="">
        <dc:format>image/svg+xml</dc:format>
        <dc:type
           rdf:resource="http://purl.org/dc/dcmitype/StillImage" />
        <dc:title />
      </cc:Work>
    </rdf:RDF>
  </metadata>
  <defs
     id="defs30" />
  <sodipodi:namedview
     pagecolor="#ffffff"
     bordercolor="#666666"
     borderopacity="1"
     objecttolerance="10"
     gridtolerance="10"
     guidetolerance="10"
     inkscape:pageopacity="0"
     inkscape:pageshadow="2"
     inkscape:window-width="1680"
     inkscape:window-height="991"
     id="namedview28"
     showgrid="false"
     inkscape:zoom="2"
     inkscape:cx="-40.197886"
     inkscape:cy="71.073026"
     inkscape:window-x="0"
     inkscape:window-y="1050"
     inkscape:window-maximized="1"
     inkscape:current-layer="svg26" />
  <linearGradient
     id="a">
    <stop
       offset=".015"
       stop-color="#da3d94"
       id="stop2" />
    <stop
       offset=".542"
       stop-color="#9b2cd5"
       id="stop4" />
    <stop
       offset="1"
       stop-color="#2da4e0"
       id="stop6" />
  </linearGradient>
  <linearGradient
     id="b"
     gradientTransform="matrix(1,0,0,-1,-60.789961,769.59981)"
     gradientUnits="userSpaceOnUse"
     x1="361.41501"
     x2="361.41501"
     xlink:href="#a"
     y1="291.10001"
     y2="472.89999" />
  <linearGradient
     id="c"
     gradientTransform="matrix(1,0,0,-1,-60.789961,769.59981)"
     gradientUnits="userSpaceOnUse"
     x1="331.772"
     x2="331.772"
     xlink:href="#a"
     y1="334.19299"
     y2="429.84601" />
  <linearGradient
     id="d"
     gradientTransform="matrix(1,0,0,-1,-60.789961,769.59981)"
     gradientUnits="userSpaceOnUse"
     x1="359.04999"
     x2="359.04999"
     xlink:href="#a"
     y1="335.69699"
     y2="427.61099" />
  <linearGradient
     id="e"
     gradientTransform="matrix(1,0,0,-1,-60.789961,769.59981)"
     gradientUnits="userSpaceOnUse"
     x1="378.97198"
     x2="378.97198"
     xlink:href="#a"
     y1="354.155"
     y2="410.02399" />
  <linearGradient
     id="f"
     gradientTransform="matrix(1,0,0,-1,-60.789961,769.59981)"
     gradientUnits="userSpaceOnUse"
     x1="399.06201"
     x2="399.06201"
     xlink:href="#a"
     y1="372.832"
     y2="391.129" />
  <path
     d="m 391.31004,387.69981 c 1,48.9 -39.9,90.9 -90.6,90.8 -50.3,-0.1 -90.8,-41.2 -90.8,-91 0,-49.9 41,-90.9 90.9,-90.8 50.8,0 91.8,42.5 90.5,91 z m -166.1,0 c -1.4,39.6 32.8,75.6 74.7,75.8 42.1,0.2 77,-33.1 76.9,-76.1 -0.1,-43.8 -35.9,-75.8 -76.1,-75.9 -41.9,0 -77,36 -75.5,76.2 z"
     id="path14"
     inkscape:connector-curvature="0"
     style="fill:url(#b)" />
  <path
     d="m 270.91004,387.39981 c -1.5,-2.5 -3.7,-4.1 -5.5,-6 -12.6,-12.8 -8.7,-33.5 7.6,-40.7 6,-2.7 11.3,0.6 11.3,7.1 0.1,26.3 0.1,52.6 0,78.9 0,7.6 -5.2,10.6 -12.1,7.5 -9.3,-4.2 -14.2,-11.7 -14.6,-21.4 -0.4,-8.2 3,-15.6 9.6,-21 1.2,-1.3 2.8,-2.3 3.7,-4.4 z"
     id="path18"
     inkscape:connector-curvature="0"
     style="fill:url(#c)" />
  <path
     d="m 304.21004,387.59981 v 36.9 c 0,1.5 0,3 -0.3,4.5 -0.6,2.9 -2.9,4.8 -5.6,4.9 -2.8,0.1 -5.4,-2 -6,-5 -0.2,-1 -0.2,-2 -0.2,-3 0,-25 0.1,-49.9 0.1,-74.9 0,-1.9 0.2,-3.7 0.9,-5.4 1,-2.4 3.3,-3.9 5.9,-3.7 2.4,0.2 4.7,2.1 5.1,4.7 0.2,1.3 0.2,2.7 0.2,4 0,12.3 0,24.6 -0.1,37 0.1,0 0.1,0 0,0 z"
     id="path20"
     inkscape:connector-curvature="0"
     style="fill:url(#d)" />
  <path
     d="m 312.21004,387.59981 v -18.9 -1.5 c 0.2,-4.8 2.5,-7.6 6.1,-7.5 3.6,0.1 5.9,2.9 5.9,7.8 0.1,13.5 0,26.9 0,40.4 0,0.7 0,1.3 -0.1,2 -0.6,3.6 -3.3,6 -6.4,5.7 -3.2,-0.3 -5.5,-2.7 -5.6,-6.4 0,-7.3 0,-14.5 0.1,-21.6 -0.1,0 0,0 0,0 z"
     id="path22"
     inkscape:connector-curvature="0"
     style="fill:url(#e)" />
  <path
     d="m 332.21004,387.39981 c 0,-1.3 -0.1,-2.7 0,-4 0.4,-2.9 2.1,-4.5 4.9,-4.9 2.9,-0.4 5,0.5 6.1,3.2 1.6,3.8 1.6,7.8 0.1,11.7 -1.1,2.8 -3.5,3.8 -6.6,3.2 -2.7,-0.5 -4.2,-2.2 -4.5,-5.2 -0.2,-1.3 0,-2.6 0,-4 z"
     id="path24"
     inkscape:connector-curvature="0"
     style="fill:url(#f)" />
  <path
     style="fill:#ffffff;fill-opacity:1;stroke-width:0.5"
     d="m 81.601194,167.59891 c -23.059444,-3.31836 -43.5079,-17.30585 -55.584663,-38.02194 -3.065109,-5.25779 -6.089262,-13.07553 -7.717841,-19.95141 -1.220016,-5.15093 -1.314203,-6.37277 -1.314203,-17.048586 0,-10.73512 0.08927,-11.877305 1.342188,-17.17281 6.75845,-28.564863 29.434598,-50.559944 58.935189,-57.165098 4.44637,-0.995538 6.55182,-1.160975 14.69025,-1.154295 10.647916,0.0087 14.761016,0.618079 23.503816,3.482008 11.74735,3.848148 21.35379,9.792627 30.26331,18.726987 10.533,10.562355 16.85152,21.92347 20.31807,36.533208 1.84235,7.764555 2.18084,20.9002 0.75373,29.249996 -3.32956,19.48079 -13.64644,36.31723 -29.51037,48.15891 -8.65985,6.46417 -19.92398,11.4161 -31.00294,13.62949 -6.495976,1.29779 -18.314236,1.6491 -24.676536,0.73354 z m -9.325285,-28.06852 c 0.728085,-0.37187 1.796835,-1.65331 2.375,-2.84764 1.042655,-2.15384 1.051205,-2.51251 1.051205,-44.105776 0,-40.762314 -0.02765,-41.991395 -0.98938,-43.97806 -2.021915,-4.176721 -6.46248,-5.075184 -11.782339,-2.38393 -8.435873,4.267609 -13.728281,12.771838 -13.728281,22.05961 0,7.69972 2.10053,12.50076 8.375,19.142155 2.26875,2.40143 4.125,4.683645 4.125,5.0716 0,0.38795 -1.970127,2.7041 -4.37806,5.146995 -3.091857,3.136746 -4.83962,5.396426 -5.949146,7.691626 -5.879023,12.16155 -1.816063,26.10982 9.54188,32.75757 4.528445,2.65047 8.108461,3.10616 11.359121,1.44585 z m 21.06411,-2.06327 c 2.39527,-2.1319 2.362095,-1.49781 2.362095,-45.148916 0,-45.04483 0.128145,-43.123604 -2.983635,-44.732767 -3.72922,-1.928454 -7.866695,0.132933 -8.956905,4.462535 -0.38932,1.546142 -0.55946,14.326467 -0.55946,42.025242 0,42.465936 -0.07112,41.176926 2.395085,43.408816 2.12206,1.92043 5.575855,1.91378 7.74282,-0.0149 z m 18.926211,-17.42331 c 0.90745,-0.46926 1.89513,-1.62159 2.46419,-2.875 0.88707,-1.95382 0.95046,-3.56749 0.96071,-24.456716 0.009,-19.262875 -0.0989,-22.639565 -0.78141,-24.345275 -0.99904,-2.496836 -2.81946,-3.706512 -5.57786,-3.706512 -2.72795,0 -4.80118,1.833267 -5.58256,4.936417 -0.35465,1.408415 -0.54719,9.842125 -0.54719,23.96772 0,24.091406 0.0345,24.383816 3.09491,26.249716 1.98815,1.21214 3.92519,1.28666 5.96921,0.22965 z m 20.8095,-19.43722 c 3.73849,-3.145731 3.46136,-13.737216 -0.43076,-16.463366 -1.47536,-1.033385 -4.54251,-1.048955 -6.50708,-0.03305 -2.15088,1.112265 -2.93592,3.406045 -2.935,8.57573 0.001,6.75494 1.63978,9.117096 6.33586,9.133686 1.4902,0.005 2.5012,-0.34146 3.53698,-1.21301 z"
     id="path828"
     inkscape:connector-curvature="0"
     transform="translate(208.7139,295)" />
</svg>
