<?xml version="1.0" encoding="UTF-8" standalone="no"?>
<!-- Generator: Adobe Illustrator 20.1.0, SVG Export Plug-In . SVG Version: 6.00 Build 0)  -->

<svg
   xmlns:dc="http://purl.org/dc/elements/1.1/"
   xmlns:cc="http://creativecommons.org/ns#"
   xmlns:rdf="http://www.w3.org/1999/02/22-rdf-syntax-ns#"
   xmlns:svg="http://www.w3.org/2000/svg"
   xmlns="http://www.w3.org/2000/svg"
   xmlns:sodipodi="http://sodipodi.sourceforge.net/DTD/sodipodi-0.dtd"
   xmlns:inkscape="http://www.inkscape.org/namespaces/inkscape"
   version="1.1"
   id="logos"
   x="0px"
   y="0px"
   viewBox="0 0 51.006577 26.072691"
   enable-background="new 0 0 125 40"
   xml:space="preserve"
   sodipodi:docname="jiosaavn_2.svg"
   width="51.006577"
   height="26.072691"
   inkscape:version="0.92.4 (5da689c313, 2019-01-14)"><metadata
   id="metadata14"><rdf:RDF><cc:Work
       rdf:about=""><dc:format>image/svg+xml</dc:format><dc:type
         rdf:resource="http://purl.org/dc/dcmitype/StillImage" /><dc:title></dc:title></cc:Work></rdf:RDF></metadata><defs
   id="defs12" /><sodipodi:namedview
   pagecolor="#ffffff"
   bordercolor="#666666"
   borderopacity="1"
   objecttolerance="10"
   gridtolerance="10"
   guidetolerance="10"
   inkscape:pageopacity="0"
   inkscape:pageshadow="2"
   inkscape:window-width="1680"
   inkscape:window-height="991"
   id="namedview10"
   showgrid="false"
   inkscape:zoom="8.034965"
   inkscape:cx="60.027767"
   inkscape:cy="14.523615"
   inkscape:window-x="0"
   inkscape:window-y="1050"
   inkscape:window-maximized="1"
   inkscape:current-layer="logos"
   fit-margin-top="0"
   fit-margin-left="0"
   fit-margin-right="0"
   fit-margin-bottom="0" />
<g
   id="g7"
   transform="translate(-0.06840335,-6.9509231)">
	<g
   id="logo_1_">
		<path
   d="m 36.927,28.702 c -1.02,-8.701 -2.67,-12.353 -5.317,-18.125 -0.104,-0.176 -0.254,-0.216 -0.427,-0.221 -0.876,0 -2.765,0.695 -2.765,3.494 v 2.545 c 0.002,0.23 0.094,0.302 0.182,0.369 5.551,3.959 7.025,9.314 7.445,12.432 0.056,0.351 0.109,0.448 0.357,0.451 h 1.237 c 0.258,0 0.307,-0.177 0.389,-0.408 0.837,-2.842 3.194,-8.186 9.47,-11.457 0.193,-0.104 0.217,-0.265 0.217,-0.353 v -3.58 c 0,-2.09 -1.412,-3.498 -3.462,-3.498 h -4.051 c -0.177,0 -0.405,0.157 -0.368,0.445 1.354,8.256 -2.052,16.319 -2.772,17.899 -0.103,0.258 -0.129,0.177 -0.135,0.007 z M 47.399,7.34 C 45.982,6.892 44.667,6.892 42.035,6.892 h -7.936 c -2.632,0 -3.948,0 -5.364,0.448 -1.547,0.563 -2.765,1.781 -3.328,3.328 -0.086,0.271 -0.155,0.539 -0.211,0.812 0.574,0.812 1.067,1.685 1.469,2.606 0.039,-1.003 0.133,-1.806 0.363,-2.532 0.491,-1.349 1.246,-2.103 2.594,-2.594 1.235,-0.391 2.69,-0.391 4.985,-0.391 h 6.92 c 2.295,0 3.75,0 4.985,0.391 1.349,0.491 2.103,1.246 2.594,2.594 0.391,1.235 0.391,2.69 0.391,4.985 v 6.92 c 0,2.295 0,3.75 -0.391,4.985 -0.491,1.349 -1.246,2.103 -2.594,2.594 -1.235,0.391 -2.69,0.391 -4.985,0.391 h -6.92 c -2.295,0 -3.75,0 -4.985,-0.391 -1.349,-0.491 -2.103,-1.246 -2.594,-2.594 -0.23,-0.726 -0.324,-1.53 -0.363,-2.533 -0.403,0.922 -0.896,1.794 -1.469,2.607 0.056,0.274 0.125,0.542 0.211,0.814 0.563,1.547 1.781,2.765 3.328,3.328 1.417,0.448 2.732,0.448 5.364,0.448 h 7.936 c 2.632,0 3.948,0 5.364,-0.448 1.547,-0.563 2.765,-1.781 3.328,-3.328 0.448,-1.417 0.448,-2.732 0.448,-5.364 v -7.936 c 0,-2.632 0,-3.948 -0.448,-5.364 C 50.164,9.122 48.945,7.903 47.399,7.34 Z M 18.956,18.908 c -0.904,0 -1.637,0.775 -1.637,1.73 0,0.956 0.733,1.73 1.637,1.73 0.905,0 1.638,-0.774 1.638,-1.73 0,-0.955 -0.733,-1.73 -1.638,-1.73 z M 13.109,6.891 C 5.869,6.891 0,12.76 0,20 0,27.239 5.869,33.108 13.109,33.108 20.349,33.108 26.218,27.239 26.218,20 26.217,12.76 20.348,6.891 13.109,6.891 Z m -3.108,13.852 c 0,6.693 -10.668,3.742 -6.343,0.307 1.012,1.404 2.955,1.311 3.162,-0.075 l 0.038,-5.459 c 0.1,-1.396 2.816,-1.673 3.143,0 z m 3.979,2.542 c 0,0.692 -0.567,1.259 -1.259,1.259 h -0.546 c -0.693,0 -1.259,-0.567 -1.259,-1.259 v -5.273 c 0,-0.691 0.567,-1.258 1.259,-1.258 h 0.546 c 0.692,0 1.259,0.567 1.259,1.258 z m 0,-8.575 c 0,0.679 -0.558,1.236 -1.237,1.236 h -0.59 c -0.681,0 -1.238,-0.556 -1.238,-1.236 v -0.305 c 0,-0.68 0.557,-1.237 1.238,-1.237 h 0.59 c 0.68,0 1.237,0.557 1.237,1.237 z m 4.976,9.999 c -2.305,0 -4.175,-1.822 -4.175,-4.071 0,-2.248 1.87,-4.07 4.175,-4.07 2.306,0 4.174,1.822 4.174,4.07 0.001,2.249 -1.868,4.071 -4.174,4.071 z m 28.349,0.107 c -2.661,0.89 -5.457,1.727 -7.697,4.134 -0.335,0.406 0.091,0.699 0.276,0.699 h 4.369 c 2.053,0 3.462,-1.509 3.462,-3.558 v -0.91 c -0.001,-0.102 -0.062,-0.468 -0.41,-0.365 z m -18.887,1.275 c 0,2.261 1.401,3.558 3.497,3.558 H 34.6 c 0.329,-0.001 0.496,-0.393 0.305,-0.661 -1.662,-2.199 -3.935,-2.858 -6.058,-3.512 -0.354,-0.069 -0.429,0.286 -0.429,0.381 z"
   id="path2"
   inkscape:connector-curvature="0"
   style="clip-rule:evenodd;fill:#2a2d36;fill-rule:evenodd"
   sodipodi:nodetypes="cccsccccsccssssccccssccccccssccssccssccccccssccssccsssssssscssccccsssssssssssssssssssssscsccsssccsscccss" />
	</g>
	<rect
   x="0"
   y="0"
   width="125"
   height="40"
   id="rect5"
   style="clip-rule:evenodd;fill:none;fill-rule:evenodd" />
</g>
<path
   style="fill:#2abfaf;fill-opacity:1;stroke-width:0.12445605"
   d="M 10.750051,25.895059 C 7.0345027,25.192378 3.9193427,23.060647 1.9268787,19.857284 -0.78392735,15.499015 -0.62280935,9.8955409 2.3363937,5.6149019 c 0.858602,-1.24201 2.691024,-2.966541 3.955534,-3.722634 1.194408,-0.714177 2.793872,-1.33863803 4.1898863,-1.63581103 1.185012,-0.252257 3.615832,-0.288334 4.791558,-0.07112 6.039018,1.11572803 10.47054,6.15909003 10.78344,12.27226413 0.31318,6.118614 -3.784128,11.658906 -9.772996,13.214836 -1.532862,0.398243 -4.066217,0.500157 -5.533765,0.222617 z M 7.7866967,17.494518 c 0.793945,-0.341546 1.655157,-1.259943 1.952177,-2.081803 0.171133,-0.473527 0.225662,-1.18484 0.2753833,-3.592242 0.06973,-3.3762471 0.0096,-3.7709881 -0.6342643,-4.1635921 -0.855975,-0.521942 -2.364497,-0.152357 -2.58306,0.632846 -0.04742,0.170358 -0.0918,1.588168 -0.09862,3.1506901 l -0.01241,2.840949 -0.363794,0.363794 c -0.284263,0.284264 -0.475804,0.363795 -0.876151,0.363795 -0.58863,0 -1.393919,-0.369253 -1.672414,-0.766861 l -0.190775,-0.272369 -0.434918,0.461146 c -0.994369,1.054339 -0.769214,2.211464 0.561523,2.885799 0.335968,0.170247 0.821098,0.362666 1.078068,0.427599 0.757293,0.191355 2.265894,0.06573 2.999255,-0.249751 z m 12.0224473,0.187225 c 0.713181,-0.115609 1.549473,-0.58284 2.147787,-1.199951 1.347299,-1.389632 1.506422,-3.450609 0.395862,-5.127249 -0.819257,-1.236852 -2.635877,-1.9976011 -4.113818,-1.7227491 -1.494636,0.277957 -2.598515,1.0969511 -3.195578,2.3708781 -0.438528,0.935666 -0.464896,2.393284 -0.05928,3.277058 0.357819,0.779632 1.203928,1.675296 1.930345,2.043398 0.597684,0.302869 1.693967,0.544833 2.15482,0.475597 0.136902,-0.02057 0.469841,-0.07321 0.739862,-0.116982 z m -6.361455,-0.313784 c 0.490085,-0.385502 0.579735,-0.952369 0.579735,-3.665792 0,-2.713423 -0.08965,-3.280291 -0.579735,-3.665793 C 13.073976,9.7424119 12.011829,9.6854289 11.473985,9.9304869 10.843961,10.217545 10.792954,10.50516 10.792954,13.77066 v 3.005571 l 0.423151,0.423151 c 0.386647,0.386647 0.487194,0.42315 1.165548,0.42315 0.55945,0 0.822152,-0.06273 1.066036,-0.254573 z m 0.0013,-8.5884791 c 0.418834,-0.329456 0.615314,-1.036728 0.452156,-1.627637 -0.188353,-0.682159 -0.512213,-0.898439 -1.433135,-0.957079 -0.777102,-0.04948 -0.812508,-0.03842 -1.237517,0.386587 -0.376271,0.376276 -0.437521,0.519412 -0.437521,1.022469 0,0.499289 0.06196,0.646907 0.423151,1.008094 0.386647,0.386647 0.487194,0.423151 1.165548,0.423151 0.560408,0 0.82205,-0.06265 1.067323,-0.255585 z"
   id="path815"
   inkscape:connector-curvature="0" /><path
   style="fill:#2abfaf;fill-opacity:1;stroke-width:0.12445605"
   d="m 18.198089,15.153115 c -0.487205,-0.297877 -0.669213,-0.528068 -0.81246,-1.02754 -0.251747,-0.87779 0.390822,-1.916238 1.274455,-2.059631 1.366168,-0.221699 2.326407,1.511138 1.452814,2.621732 -0.533342,0.678034 -1.273019,0.85783 -1.914809,0.465439 z"
   id="path817"
   inkscape:connector-curvature="0" /><path
   style="fill:#ffffff;fill-opacity:1;stroke-width:0.12445605"
   d="m 30.021414,25.946743 c -1.972869,-0.286519 -3.536085,-1.353872 -4.35359,-2.972601 -0.517515,-1.024722 -0.513409,-1.259115 0.03861,-2.203773 0.271709,-0.46497 0.574958,-1.006537 0.673885,-1.203482 0.177078,-0.352527 0.181175,-0.34403 0.264047,0.54764 0.09244,0.994612 0.497066,2.133514 0.962042,2.70786 0.428491,0.529279 1.344636,1.130088 2.05362,1.346767 1.08401,0.331294 4.214772,0.452864 9.882275,0.383737 4.180649,-0.05099 5.602751,-0.108756 6.243184,-0.253593 1.439425,-0.325532 2.339928,-0.932506 2.894127,-1.950751 0.727822,-1.337247 0.729916,-1.359767 0.786798,-8.459696 0.05522,-6.8926621 -0.01369,-8.2848801 -0.470501,-9.5058211 -0.316384,-0.845606 -1.033491,-1.669746 -1.817557,-2.088835 -1.217639,-0.650836 -1.404717,-0.664265 -9.253981,-0.664265 -7.211679,0 -7.289152,0.0027 -8.174712,0.281095 -1.924664,0.605139 -2.921524,1.935578 -3.11325,4.155032 l -0.07143,0.826901 -0.435835,-0.826901 c -0.239709,-0.454796 -0.540112,-0.97556 -0.667562,-1.157254 -0.284894,-0.406148 -0.288151,-0.578324 -0.02372,-1.253944 0.709315,-1.812305 2.309442,-3.09638403 4.33464,-3.47848603 1.231784,-0.232406 15.164409,-0.236349 16.428198,-0.0046 2.430774,0.445651 4.096381,2.05487203 4.603158,4.44732303 0.26699,1.260441 0.271705,15.6391401 0.0055,16.8952031 -0.349631,1.649943 -1.471894,3.148647 -2.899491,3.872066 -1.26559,0.641323 -2.130274,0.700645 -9.970722,0.684052 -3.944067,-0.0083 -7.507064,-0.06398 -7.917769,-0.123624 z"
   id="path838"
   inkscape:connector-curvature="0" /><path
   style="fill:#ffffff;fill-opacity:1;stroke-width:0.12445605"
   d="m 35.844961,21.200644 c -0.4858,-2.512077 -1.414327,-4.812361 -2.74407,-6.798014 -0.824399,-1.231042 -2.774535,-3.307871 -3.871487,-4.123005 l -0.753681,-0.5600521 4.58e-4,-1.929069 c 4.97e-4,-2.093919 0.09325,-2.547691 0.677263,-3.313373 0.379104,-0.49703 1.505086,-1.084284 1.956166,-1.020234 0.325141,0.04617 0.417045,0.218438 1.779328,3.335288 1.127129,2.578827 2.001501,5.0890741 2.594495,7.4485681 0.413277,1.644411 1.078643,5.321284 1.259424,6.959698 0.04719,0.42771 0.132812,0.748605 0.190263,0.713098 0.17956,-0.110974 1.330174,-3.190961 1.79465,-4.803959 0.488825,-1.697552 0.967902,-4.012473 1.207422,-5.834316 0.188947,-1.4371711 0.191297,-5.4623951 0.0039,-6.6526321 -0.09729,-0.617888 -0.09797,-0.911572 -0.0024,-1.026762 0.202571,-0.244084 4.449716,-0.22471 5.287618,0.02412 0.944004,0.280339 1.578548,0.803964 1.988861,1.641208 0.344789,0.703542 0.356243,0.790037 0.392608,2.964892 0.0206,1.232115 -0.0071,2.3010011 -0.06154,2.3753031 -0.05445,0.0743 -0.491457,0.362871 -0.971133,0.641266 -3.888389,2.256742 -6.835957,5.847175 -8.407912,10.241682 L 37.76584,22.600774 H 36.940775 36.11571 Z"
   id="path840"
   inkscape:connector-curvature="0" /><path
   style="fill:#ffffff;fill-opacity:1;stroke-width:0.12445605"
   d="m 39.489272,22.393183 c -0.162089,-0.422396 1.739122,-1.938803 3.600027,-2.871382 1.506059,-0.754751 4.308032,-1.699235 4.446783,-1.498914 0.06084,0.08783 0.08042,0.607739 0.04352,1.155346 -0.112562,1.6705 -0.988105,2.932409 -2.284354,3.292409 -0.254962,0.07081 -1.647686,0.129056 -3.094943,0.129438 -2.342368,6.18e-4 -2.640125,-0.02211 -2.711036,-0.206897 z"
   id="path842"
   inkscape:connector-curvature="0" /><path
   style="fill:#ffffff;fill-opacity:1;stroke-width:0.12445605"
   d="m 30.705116,22.48449 c -1.388461,-0.422351 -2.231391,-1.586293 -2.236669,-3.088459 -0.0024,-0.669049 0.02882,-0.77785 0.222832,-0.77785 0.373312,0 2.362725,0.712668 3.346924,1.198971 1.134759,0.560695 2.774769,2.029306 2.774769,2.484776 v 0.298846 l -1.897955,-0.0107 c -1.043875,-0.0059 -2.03833,-0.0534 -2.209901,-0.105587 z"
   id="path844"
   inkscape:connector-curvature="0" /></svg>