<?xml version="1.0" encoding="UTF-8" standalone="no"?>
<!-- Generator: Adobe Illustrator 22.0.1, SVG Export Plug-In . SVG Version: 6.00 Build 0)  -->

<svg
   xmlns:dc="http://purl.org/dc/elements/1.1/"
   xmlns:cc="http://creativecommons.org/ns#"
   xmlns:rdf="http://www.w3.org/1999/02/22-rdf-syntax-ns#"
   xmlns:svg="http://www.w3.org/2000/svg"
   xmlns="http://www.w3.org/2000/svg"
   xmlns:sodipodi="http://sodipodi.sourceforge.net/DTD/sodipodi-0.dtd"
   xmlns:inkscape="http://www.inkscape.org/namespaces/inkscape"
   version="1.1"
   id="Layer_1"
   x="0px"
   y="0px"
   viewBox="0 0 52.416 38.244446"
   xml:space="preserve"
   sodipodi:docname="medianet_w.svg"
   width="52.416"
   height="38.244446"
   inkscape:version="0.92.4 (5da689c313, 2019-01-14)"><metadata
   id="metadata59"><rdf:RDF><cc:Work
       rdf:about=""><dc:format>image/svg+xml</dc:format><dc:type
         rdf:resource="http://purl.org/dc/dcmitype/StillImage" /><dc:title></dc:title></cc:Work></rdf:RDF></metadata><defs
   id="defs57">
	
	
</defs><sodipodi:namedview
   pagecolor="#ffffff"
   bordercolor="#666666"
   borderopacity="1"
   objecttolerance="10"
   gridtolerance="10"
   guidetolerance="10"
   inkscape:pageopacity="0"
   inkscape:pageshadow="2"
   inkscape:window-width="1680"
   inkscape:window-height="991"
   id="namedview55"
   showgrid="false"
   inkscape:zoom="1.35"
   inkscape:cx="-112.57037"
   inkscape:cy="9.9"
   inkscape:window-x="0"
   inkscape:window-y="1050"
   inkscape:window-maximized="1"
   inkscape:current-layer="Layer_1" />
<style
   type="text/css"
   id="style2">
	.st0{enable-background:new    ;}
	.st1{fill:#999999;}
	.st2{fill:#F6575F;}
	.st3{fill:#F55760;}
	.st4{fill:#F5575F;}
	.st5{fill:#F45A63;}
	.st6{fill:#F37D8A;}
	.st7{fill:#F4828B;}
</style>


<path
   style="fill:#f6575f"
   inkscape:connector-curvature="0"
   id="path26"
   d="m 52.4,6.0444444 c 0,-3.7 -2.7,-5.99999996 -6.5,-5.99999996 -13,-0.1 -26,0 -39,0 -4.3,0 -6.9,2.59999996 -6.9,6.79999996 0,8.0999996 0,16.2999996 0,24.3999996 0,4.8 2.2,7 6.9,7 6.4,0 12.9,0 19.3,0 6.6,0 13.3,0 19.9,0 3.8,0 6,-2 6.1,-5.8 0.3,-8.9 0.2,-17.7 0.2,-26.3999996 z M 30.2,29.344444 c 0,1.6 -0.7,2.4 -2.3,2.4 -5.5,0.1 -5.6,0.2 -5.5,-5 0.1,-3.6 0,-7.3 0,-10.9 0,-1.9 0.7,-2.5 2.5,-2.5 1,0 1.9,0 2.9,0 1.8,0 2.4,0.6 2.4,2.4 0,2.2 0,4.5 0,6.7 0,2.3 0,4.6 0,6.9 z m 15.1,-0.4 c 0,2.1 -0.7,2.8 -2.7,2.8 -4.6,0.1 -5.2,-0.1 -5.1,-4.8 0.1,-4.2 0,-8.4 0,-12.6 0,-2.8 -1,-3.7 -3.8,-3.7 -4.9,0 -9.8,0 -14.7,0 -2.6,0 -3.7,1 -3.7,3.6 0,4.8 0,9.5 0,14.3 0,2.4 -0.9,3.3 -3.4,3.3 -0.7,0 -1.3,0 -2,0 -1.5,-0.2 -2.5,-1.2 -2.5,-2.6 0,-6.2 0,-12.5 0,-18.7 0,-2.3999996 1.5,-3.7999996 4,-3.7999996 5,0 9.9,0 14.9,0 0,0 0,0 0,0 4.8,0 9.6,0 14.4,0 3.1,0 4.5,1.4 4.5,4.4999996 0.1,5.8 0.1,11.7 0.1,17.7 z"
   class="st2" />
<path
   style="fill:#ffffff;fill-opacity:1;stroke-width:0.74074072"
   d="M 9.3185186,31.38727 C 8.1544051,31.084959 8.0222223,29.883538 8.0222223,19.605131 V 8.1596297 L 10.028242,7.3969423 C 11.2463,6.9338375 18.107844,6.7228177 27.496593,6.8597208 c 14.40511,0.2100497 15.535455,0.3255848 16.531811,1.6897523 0.837283,1.1463694 1.025083,3.7195729 0.864983,11.8518519 L 44.688889,30.78889 H 41.355556 38.022222 L 37.81313,21.576723 C 37.694193,16.33664 37.255846,11.945011 36.796504,11.391538 35.830979,10.228151 17.961682,10.012099 16.17037,11.142153 c -0.87282,0.550622 -1.16345,2.772234 -1.355162,10.359028 -0.18832,7.452554 -0.470508,9.65808 -1.235713,9.65808 -0.545414,0 -1.435591,0.127046 -1.978171,0.282323 -0.54258,0.155279 -1.569842,0.130837 -2.2828054,-0.05431 z"
   id="path816"
   inkscape:connector-curvature="0" /><path
   style="fill:#ffffff;fill-opacity:1;stroke-width:0.74074072"
   d="m 22.837037,22.719993 c 0,-9.062978 0.121224,-9.33851 4.108595,-9.33851 2.558366,0 3.298812,2.05379 3.298812,9.149978 0,8.271611 -0.171465,8.6278 -4.153325,8.6278 h -3.254082 z"
   id="path818"
   inkscape:connector-curvature="0" /></svg>