<?xml version="1.0" encoding="UTF-8" standalone="no"?>
<!-- Created with Inkscape (http://www.inkscape.org/) -->

<svg
   xmlns:dc="http://purl.org/dc/elements/1.1/"
   xmlns:cc="http://creativecommons.org/ns#"
   xmlns:rdf="http://www.w3.org/1999/02/22-rdf-syntax-ns#"
   xmlns:svg="http://www.w3.org/2000/svg"
   xmlns="http://www.w3.org/2000/svg"
   xmlns:sodipodi="http://sodipodi.sourceforge.net/DTD/sodipodi-0.dtd"
   xmlns:inkscape="http://www.inkscape.org/namespaces/inkscape"
   version="1.0"
   width="205"
   height="193.36995"
   viewBox="0 0 481.30539 454"
   id="svg2"
   sodipodi:docname="napster.svg"
   inkscape:version="0.92.1 r15371">
  <metadata
     id="metadata11">
    <rdf:RDF>
      <cc:Work
         rdf:about="">
        <dc:format>image/svg+xml</dc:format>
        <dc:type
           rdf:resource="http://purl.org/dc/dcmitype/StillImage" />
        <dc:title></dc:title>
      </cc:Work>
    </rdf:RDF>
  </metadata>
  <sodipodi:namedview
     pagecolor="#ffffff"
     bordercolor="#666666"
     borderopacity="1"
     objecttolerance="10"
     gridtolerance="10"
     guidetolerance="10"
     inkscape:pageopacity="0"
     inkscape:pageshadow="2"
     inkscape:window-width="640"
     inkscape:window-height="480"
     id="namedview9"
     showgrid="false"
     inkscape:zoom="0.51952573"
     inkscape:cx="342.62018"
     inkscape:cy="96.684975"
     inkscape:window-x="451"
     inkscape:window-y="842"
     inkscape:window-maximized="0"
     inkscape:current-layer="svg2" />
  <defs
     id="defs9" />
  <g
     transform="matrix(0.9999734,0,0,0.9999734,0.0235011,0.00604285)"
     id="logo">
    <g
       id="kopf">
      <path
         d="m 300.95529,257.08156 c 19.59717,-1.2954 39.24855,-1.68802 58.88562,-1.5967 -0.3412,6.73661 -0.91907,13.56174 -3.16038,19.97351 -4.83925,14.72617 -17.69107,26.47532 -32.74875,30.08928 -5.18524,1.42344 -10.5293,2.21305 -15.90108,2.38124 -19.23386,0.79523 -38.48509,1.10797 -57.7296,1.33304 2.34636,-10.52203 5.32422,-21.03796 10.48265,-30.56315 3.99451,-7.26442 9.64403,-13.99086 17.29769,-17.53438 7.08818,-3.5065 15.17775,-3.37367 22.87385,-4.08284 z m -181.58586,-1.59752 c 23.2267,-0.034 46.49867,0.3278 69.63846,2.49739 9.44705,0.61415 18.42969,5.44019 24.22903,12.9082 8.7204,11.0282 12.58968,24.8908 15.71039,38.35952 -19.33206,-0.20086 -38.67103,-0.52419 -57.9906,-1.34092 -12.85925,-0.52449 -26.22021,-4.09929 -35.771,-13.15742 -11.23821,-9.69003 -15.67126,-24.85054 -15.81628,-39.26677 z"
         style="fill:#78bf42;fill-rule:nonzero;stroke:none"
         id="augen"
         inkscape:connector-curvature="0" />
      <path
         d="m 230.7,0 c -34.07006,1.627365 -67.75355,11.896014 -96.65,30.075 -15.87909,9.9198 -30.3411,22.092865 -42.875,36 -15.973633,-4.179993 -32.38909,-6.66767 -48.9,-7.15 0.0013,22.281648 -0.02748,44.56818 0,66.85 C 17.96018,140.86235 1.572205,167.9151 0,196.55 v 11.8 c 1.770645,28.62242 18.194742,55.51256 42.35,70.8 2.606735,23.71245 9.535089,46.94378 20.525,68.125 17.892544,34.82783 46.54419,63.99438 80.925,82.7 26.3063,14.45105 55.95012,22.52578 85.9,24.025 h 18.675 c 21.59737,-1.11592 43.05866,-5.40222 63.25,-13.2 33.60579,-12.86957 63.69398,-34.96881 85.7,-63.475 22.0726,-28.21931 35.81718,-62.75248 39.475,-98.375 14.59062,-9.18039 26.68629,-22.38477 34.025,-38.025 10.44094,-21.6305 11.48391,-47.46017 3.125,-69.95 -6.8358,-18.63238 -20.1001,-34.73362 -36.925,-45.225 -0.0882,-22.27635 -0.002,-44.548664 -0.025,-66.825 -16.36195,0.50029 -32.63703,2.93324 -48.475,7.05 C 377.0286,53.232965 363.93236,41.930869 349.575,32.525 319.88934,12.889136 284.82209,1.710037 249.3,0 Z m 9.5,37.175 c 40.25063,0.110825 80.30009,15.701599 109.75,43.25 -6.73389,3.236888 -13.22272,6.951248 -19.575,10.875 -28.69379,-14.782239 -61.05442,-22.512546 -93.35,-21.825 -30.59981,0.132049 -61.08595,7.855277 -88.25,21.9 -6.33018,-3.89244 -12.84111,-7.456888 -19.45,-10.85 25.56066,-23.732726 58.8875,-38.98222 93.625,-42.425 5.72794,-0.625786 11.49991,-0.940832 17.25,-0.925 z M 81.3,102.2 c 24.58355,6.63324 47.56801,18.81005 67.075,35.15 25.75894,-18.2022 57.05942,-28.52581 88.625,-28.825 33.29888,-0.76478 66.69665,9.55817 93.85,28.825 19.43072,-16.44849 42.56905,-28.35492 67.125,-35 0.0503,51.89651 0.0102,103.77829 0.05,155.675 0.0238,30.66122 -9.10929,61.31444 -26.15,86.825 -16.97646,25.65615 -41.68018,46.10353 -70.05,58 -28.49933,12.09909 -60.56642,15.42397 -91,9.9 C 179.06894,407.08843 149.18899,391.41168 126.55,368.425 98.106392,340.00252 81.509696,300.20641 81.275,260 81.277888,207.39691 81.26788,154.80294 81.3,102.2 Z m 109.23619,227.52762 c 32.71794,-0.0173 65.43602,-0.0344 98.15426,0.009 -13.82756,13.48845 -30.78695,23.66826 -49.07458,29.84039 -18.28567,-6.17754 -35.26534,-16.34399 -49.07968,-29.84933 z m 2.36983,53.77496 c 1.22244,-6.29071 4.56719,-12.14003 9.79775,-15.93182 23.92534,6.95967 49.87654,7.00601 73.79682,-0.001 5.26307,3.73736 8.67435,9.53296 10.01183,15.79571 -28.05577,17.18187 -65.47311,17.12723 -93.6064,0.13741 z"
         style="fill:#005ca8;fill-rule:nonzero;stroke:none"
         id="kopf_blau"
         inkscape:connector-curvature="0" />
    </g>
    <path
       d="m 1321.8664,106.1834 c 18.262,-3.46405 36.5141,-6.985509 54.7827,-10.428899 -2.9937,14.617709 -6.6626,29.087419 -10.6733,43.456159 15.7992,0.0249 31.6001,0.0225 47.4033,0.009 -5.45,11.46781 -10.7929,22.98905 -16.44,34.35988 -13.5806,-0.097 -27.1594,-0.019 -40.7358,-0.0334 -6.7417,24.08125 -13.6163,48.12514 -20.3984,72.19496 -2.0532,8.15518 -5.2182,16.0687 -6.2274,24.45439 7.3986,1.96589 15.0575,0.69468 22.4998,-0.32759 10.1615,-1.50877 20.2517,-3.46856 30.3157,-5.54335 -3.4371,12.65044 -7.1572,25.22211 -10.6508,37.85698 -20.1374,5.08336 -41.0097,7.80881 -61.7881,6.56797 -9.2525,-0.76513 -18.9421,-2.51207 -26.5414,-8.19396 -5.6146,-4.15256 -9.0242,-10.82452 -9.7097,-17.71376 -1.2977,-10.95699 2.6298,-21.51828 5.5001,-31.90216 7.2808,-25.80089 14.625,-51.58382 21.8911,-77.38899 -9.7387,-0.029 -19.4742,-0.009 -29.207,-0.0207 3.2001,-11.4422 6.4827,-22.86127 9.685,-34.30349 9.85,-0.003 19.7026,0.002 29.5584,-0.002 4.1818,-10.80382 8.19,-21.7165 10.7358,-33.04167 z M 841.57504,136.275 c -6.89552,-0.008 -13.78592,0.29893 -20.65,0.8 -18.4148,1.47489 -36.7645,4.29585 -54.67504,8.85 -3.55383,12.85045 -7.29467,25.64325 -10.825,38.5 25.15666,-5.31949 50.6742,-10.6165 76.525,-9.85 4.7376,0.26458 9.7656,0.31835 14.07504,2.575 2.80744,1.42271 2.97816,5.02788 2.45,7.75 -0.91352,4.77901 -2.52592,9.37927 -3.77504,14.075 -12.9368,0.10635 -25.86832,-0.11935 -38.8,0.125 -16.16583,0.68236 -32.46559,3.23614 -47.45,9.55 -11.46051,4.85764 -22.0845,12.22158 -29.625,22.225 -8.27629,10.91706 -12.88276,24.453 -13.725,38.075 -0.65021,10.10115 2.42158,20.91662 10.175,27.8 10.37848,9.53494 25.15947,11.86031 38.75,12.25 20.20262,0.77026 40.44908,-4.52762 57.925,-14.625 0.0555,3.87779 0.20536,7.74446 0.3,11.625 15.76464,-0.0392 31.53312,0.0421 47.3,-0.025 10.49952,-37.2663 21.07848,-74.52186 31.62504,-111.775 1.98216,-6.88861 3.3564,-14.00341 3.15,-21.2 0.007,-8.48154 -3.13448,-17.14148 -9.4,-23 -7.2676,-6.89357 -17.17776,-10.06882 -26.85,-11.75 -8.76168,-1.4085 -17.6344,-1.96495 -26.5,-1.975 z m -5.25,92.25 c -3.3524,11.25138 -6.04008,22.74503 -9.87504,33.825 -12.3736,6.51839 -26.40808,10.75729 -40.5,10.3 -4.7153,-0.4253 -10.70694,-0.59528 -13.5,-5.075 -2.34604,-5.4263 -0.36151,-11.5105 1.3,-16.85 2.50494,-7.87985 8.55666,-14.48243 16.375,-17.3 14.74804,-5.44796 30.76996,-4.26214 46.20004,-4.9 z M 1043.2,136.25 c -18.9432,-0.34424 -37.8318,5.02418 -54.1,14.675 -0.60736,-3.90695 -1.26296,-7.80082 -1.9,-11.7 -14.26584,-0.002 -28.5372,-0.0102 -42.8,0 -21.05536,74.34456 -42.11368,148.69293 -63.12496,223.05 18.37056,0.0295 36.72712,-0.0122 55.1,0.025 5.45216,-19.35146 10.92984,-38.68586 16.42496,-58.025 16.53808,5.09506 34.15696,5.83262 51.25,3.6 16.1758,-2.07995 32.097,-7.18412 45.975,-15.85 21.6528,-13.21361 37.0992,-34.93637 45.475,-58.625 5.4179,-15.50061 9.2576,-31.82216 8.975,-48.325 -0.3196,-12.89886 -4.4658,-26.45374 -14.525,-35.1 -11.7202,-10.2671 -27.8866,-13.05102 -42.975,-13.575 -1.2627,-0.0741 -2.5121,-0.12705 -3.775,-0.15 z m -16.6,36.45 c 3.1301,-0.004 6.2692,0.20459 9.4,0.65 4.335,0.6463 8.9953,2.47322 11.175,6.55 3.1444,5.81195 2.4336,12.73569 1.9,19.075 -2.0652,14.45817 -6.1248,28.67368 -12.05,42.025 -5.758,12.6 -14.9622,24.7959 -28.5,29.5 -14.87636,5.00171 -30.96148,2.44454 -45.94996,-0.7 8.2056,-29.17134 16.52704,-58.30843 24.75,-87.475 12.2832,-5.62287 25.71146,-9.60688 39.27496,-9.625 z m 150.4553,-32.93141 c 20.1467,-4.34984 41.088,-4.41753 61.4302,-1.37644 9.0881,1.40001 18.1151,3.37462 26.7999,6.44673 -3.4453,12.25772 -6.9121,24.50904 -10.396,36.75528 -12.7597,-3.22023 -25.7146,-5.74121 -38.8048,-7.11822 -10.0118,-0.96474 -20.2923,-1.0261 -30.0894,1.48031 -5.6132,1.4148 -11.3753,5.02263 -12.638,11.0674 -1.1921,3.20931 0.7576,6.53822 3.626,8.01476 5.9013,3.32791 12.5896,4.84131 18.9739,6.98134 10.0856,3.31158 20.6757,5.62632 29.8687,11.15858 7.5952,4.55777 14.1972,11.5042 16.5651,20.22377 3.0828,10.74814 0.3455,22.14612 -3.7948,32.21654 -5.3136,12.91832 -15.116,23.87796 -27.376,30.57338 -9.1582,5.22267 -19.367,8.29992 -29.6858,10.2127 -29.9726,5.25449 -60.8982,2.46517 -90.1314,-5.51896 3.6681,-12.86286 7.1473,-25.78263 11.0256,-38.58368 12.0535,3.14715 24.2639,5.71939 36.5815,7.60989 11.1981,1.74727 22.7695,1.98485 33.8842,-0.46734 5.8628,-1.29581 11.8828,-4.49428 14.3171,-10.29383 1.6608,-3.51188 2.6782,-8.63141 -1.0535,-11.21208 -5.4631,-3.81049 -12.0977,-5.32646 -18.2702,-7.58314 -13.2446,-4.77517 -27.7048,-8.03708 -38.4635,-17.69484 -7.3193,-6.29476 -11.4915,-15.96688 -10.9076,-25.61866 0.9459,-14.1506 7.7335,-27.69702 18.0854,-37.3256 11.1101,-10.5333 25.6696,-16.65085 40.4534,-19.94789 z M 1504.325,136.3 c -12.6453,0.10932 -25.2859,1.97489 -37.375,5.675 -17.7671,5.43512 -34.1128,15.64664 -46.4,29.625 -11.9916,13.52846 -20.1834,30.05426 -25.325,47.3 -4.7366,16.1911 -8.0545,33.54269 -4.4,50.3 2.2345,10.63114 8.4411,20.355 17.325,26.65 11.827,8.46628 26.5678,11.37935 40.8,12.6 27.5661,2.09774 55.3306,-1.26362 82.075,-8 3.7612,-13.06651 7.4742,-26.14493 11.1,-39.25 -15.2289,3.5437 -30.6387,6.32746 -46.15,8.275 -11.926,1.31002 -24.1174,2.57989 -35.975,0.1 -5.8936,-1.22365 -11.8779,-4.33641 -14.65,-9.925 -3.1167,-6.51924 -2.2948,-14.0627 -0.8,-20.9 38.3185,0.0699 76.6296,0.008 114.95,0.025 3.5186,-11.15218 7.5094,-22.21266 9.5,-33.775 1.9226,-11.07042 2.5031,-22.66627 -0.5,-33.6 -2.368,-8.707 -7.5102,-16.6829 -14.675,-22.2 -9.2011,-7.25222 -20.8532,-10.50811 -32.3,-11.975 -5.7032,-0.66988 -11.4521,-0.97469 -17.2,-0.925 z m -6.875,34 c 3.5479,-0.001 7.0995,0.40886 10.5,1.175 4.1977,1.00444 7.8083,4.23702 8.9,8.475 2.4969,8.67271 0.097,17.71486 -1.725,26.275 -20.287,0.005 -40.5663,0.005 -60.85,0 3.2688,-8.95653 7.4343,-17.87997 14.3,-24.675 7.494,-7.67586 18.2312,-11.24641 28.875,-11.25 z m 157.0872,-19.46441 c 12.3892,-9.42469 27.8286,-14.95749 43.4697,-14.54845 8.0746,0.1796 16.1056,1.2681 24.0159,2.90407 -4.1332,14.77046 -8.3324,29.52212 -12.535,44.2722 -9.6838,-2.14786 -19.5416,-3.67114 -29.4616,-3.94804 -9.8903,-0.33664 -19.65,2.51974 -28.3478,7.08187 -11.165,39.82613 -22.5597,79.58788 -33.7472,119.40741 -18.3893,-0.002 -36.7765,-0.0258 -55.1619,0.0145 15.7551,-55.59599 31.4764,-111.20152 47.2359,-166.7964 14.7043,-0.003 29.411,0.0279 44.1202,-0.014 0.1243,3.87508 0.22,7.75191 0.4118,11.62685 z m -1056.80258,4.22938 c 24.53786,-11.86572 51.81401,-19.99438 79.31718,-17.61984 10.70407,0.88264 21.9424,3.06396 30.54688,9.92261 6.54356,5.22854 10.22885,13.46898 10.62164,21.75746 0.73677,9.99902 -2.26855,19.69957 -5.01411,29.18126 -10.24633,36.15654 -20.45188,72.32444 -30.72656,108.47297 -18.37446,-0.008 -36.74793,-0.0203 -55.12078,0.003 11.21511,-39.59989 22.44219,-79.19718 33.63492,-118.80263 0.599,-2.715 1.51715,-6.04817 -0.52586,-8.38106 -2.4964,-2.28195 -6.12124,-2.45622 -9.29602,-2.90295 -20.05524,-1.71131 -39.80208,4.22017 -58.1901,11.66275 -11.18651,39.46443 -22.3342,78.93977 -33.53126,118.40127 -18.372,0.0108 -36.74341,0.0375 -55.11405,-0.0136 15.66963,-55.56222 31.52942,-111.07133 47.11327,-166.65724 14.71075,-0.19475 29.42526,-0.0497 44.13898,-0.0754 0.69024,5.02013 1.4291,10.0333 2.14587,15.05159 z M 1739.05,261.95 c -2.4249,0.0543 -4.8542,0.36901 -7.175,0.925 -8.4589,1.95978 -15.6446,8.61632 -18.075,16.975 -2.6219,8.75278 -2.0318,18.75526 2.7,26.7 9.7194,15.73147 36.2954,15.74062 46.225,0.2 2.268,-3.43889 3.4351,-7.45231 4.275,-11.45 v -9.9 c -1.0082,-6.06094 -3.4111,-12.08813 -8,-16.325 -5.3079,-5.09431 -12.6754,-7.28779 -19.95,-7.125 z m 0.575,7.975 c 5.3352,-0.0142 10.7144,1.95942 14.175,6.125 5.6938,7.0765 5.9649,17.64512 1.85,25.55 -5.7082,10.56049 -22.379,11.6673 -29.925,2.6 -5.0408,-6.01121 -5.751,-14.75828 -3.475,-22.05 1.6666,-5.62462 6.4232,-10.15399 12.125,-11.55 1.6966,-0.43648 3.4716,-0.67026 5.25,-0.675 z m -0.75,5.225 c -2.8862,-0.0267 -5.8321,0.23395 -8.65,0.1 -0.014,9.58415 0.01,19.16451 0,28.75 2.5783,-10e-4 5.1668,-0.007 7.775,0 -0.035,-3.84246 -0.089,-7.69578 0.25,-11.525 3.2164,2.96243 3.4684,7.5421 4.525,11.525 2.91,0.004 5.8375,-0.002 8.775,0 -1.325,-4.38153 -2.5382,-8.89947 -5.275,-12.65 5.1226,-2.93866 6.0312,-11.21782 0.95,-14.6 -2.6426,-1.2613 -5.4638,-1.57325 -8.35,-1.6 z m -0.85,5.55 c 1.3529,0.43878 2.9908,0.27939 4.225,1.15 0.6026,1.1716 0.5742,2.57767 0.325,3.85 -0.3579,2.13461 -3.0052,1.88004 -4.525,2.625 -0.053,-2.54969 -0.053,-5.08015 -0.025,-7.625 z"
       style="fill:#7f7d82;fill-rule:nonzero;stroke:none"
       id="text"
       inkscape:connector-curvature="0" />
  </g>
</svg>
