<?xml version="1.0" encoding="UTF-8" standalone="no"?>
<svg
   xmlns:dc="http://purl.org/dc/elements/1.1/"
   xmlns:cc="http://creativecommons.org/ns#"
   xmlns:rdf="http://www.w3.org/1999/02/22-rdf-syntax-ns#"
   xmlns:svg="http://www.w3.org/2000/svg"
   xmlns="http://www.w3.org/2000/svg"
   xmlns:sodipodi="http://sodipodi.sourceforge.net/DTD/sodipodi-0.dtd"
   xmlns:inkscape="http://www.inkscape.org/namespaces/inkscape"
   width="700"
   height="480"
   viewBox="520 -440 406.84 279.0816"
   version="1.1"
   id="svg4"
   sodipodi:docname="tidal.svg"
   inkscape:version="0.92.1 r15371">
  <metadata
     id="metadata10">
    <rdf:RDF>
      <cc:Work
         rdf:about="">
        <dc:format>image/svg+xml</dc:format>
        <dc:type
           rdf:resource="http://purl.org/dc/dcmitype/StillImage" />
        <dc:title></dc:title>
      </cc:Work>
    </rdf:RDF>
  </metadata>
  <defs
     id="defs8" />
  <sodipodi:namedview
     pagecolor="#ffffff"
     bordercolor="#666666"
     borderopacity="1"
     objecttolerance="10"
     gridtolerance="10"
     guidetolerance="10"
     inkscape:pageopacity="0"
     inkscape:pageshadow="2"
     inkscape:window-width="1680"
     inkscape:window-height="991"
     id="namedview6"
     showgrid="false"
     fit-margin-top="0"
     inkscape:pagecheckerboard="false"
     viewbox-y="-440"
     viewbox-x="520"
     inkscape:zoom="0.1564"
     inkscape:cx="1138.1074"
     inkscape:cy="608"
     inkscape:window-x="0"
     inkscape:window-y="630"
     inkscape:window-maximized="1"
     inkscape:current-layer="svg4" />
  <path
     d="m 596.8,-427.9212 h 0.8 c 6.102,7 13,13.2 19.5,19.9 l 44.2,44.2 v 0.8 c -21.398,21.3 -42.7,42.8 -64.1,64.1 -21.5,-21.4 -42.9,-42.9 -64.4,-64.3 1.102,-2.1 3.2,-3.5 4.8,-5.2 19.7,-19.9 39.7,-39.5 59.2,-59.5 z m 129,0 h 0.8 c 0.602,0.9 1.2,1.7 2,2.5 20.7,20.5 41.102,41.3 62,61.7 -0.5,1.2 -1.6,2 -2.5,2.9 -20.698,20.6 -41.3,41.3 -62,61.9 -21.6,-21.3 -42.8,-43 -64.5,-64.2 21,-21.9 43.1,-43 64.2,-64.8 z m 129,0 h 0.8 c 4,4.8 8.7,8.9 13,13.4 16.2,16.2 32.302,32.3 48.5,48.5 0.802,0.9 2.102,1.7 2.4,3 -21.7,21.1 -42.7,43 -64.5,64.1 l -61.5,-61.5 c -1,-1.1 -2.3,-1.9 -2.8,-3.3 10.9,-10.6 21.5,-21.5 32.3,-32.2 10.6,-10.7 21.4,-21.1 31.8,-32 z m -192.3,192.5 c 21.1,-21.1 42.3,-42.2 63.4,-63.4 l 0.898,0.4 c 21.2,21.3 42.4,42.6 63.8,63.7 -0.698,1.6 -2.198,2.5 -3.3,3.8 -15.398,15.3 -30.8,30.8 -46.2,46.1 -5,4.8 -9.8,10.2 -14.898,14.7 -7.3,-6.6 -14,-14 -21.102,-20.8 -14.398,-14.4 -28.698,-28.8 -43.198,-43.1 0.2,-0.4 0.4,-1 0.6,-1.4 z M 0,41.9788 h 192.4 c 0.1,15.398 0.1,30.8 0,46.1 h -69.3 v 182 c -0.1,3 0.2,6 -0.4,9 H 69.2 c 0.2,-63.7 0.1,-127.3 0.1,-191 H 0 Z m 352.9,0 c 18,0 36,0 54,0.1 -0.1,79 0.2,158 -0.2,237 H 353 c -0.3,-21 -0.1,-42 -0.2,-63 0.1,-58 0,-116 0.1,-174.1 z m 952.1,0 c 18,0 36,0 54,0.1 v 189.4 c 31.3,0.198 62.7,0.1 94,0.1 v 47.5 h -147.9 c -0.3,-79 0,-158 -0.1,-237.1 z m -507.6,79.5 c -5.4,-18.602 -15.9,-35.5 -30.5,-48.2 -19.3,-17.1 -44.5,-26.4 -69.8,-29.7 -14.3,-2.1 -28.8,-1.5 -43.198,-1.6 h -63.9 c -1.2,0 -2.5,0.1 -3.7,0.3 0.3,78.3 0,156.6 0.2,234.898 -0.1,0.5 -0.2,1.4 -0.3,1.9 H 678.6 c 8.302,-1.5 16.802,-1.4 25,-3.2 28,-5.1 54.9,-19 73.2,-41.1 13.5,-16 21.8,-36.102 24.5,-56.8 2.4,-18.898 1.4,-38.298 -3.9,-56.498 z m -60.9,78.7 c -6.7,10.7 -16.6,19.2 -28.1,24.4 -10.4,4.8 -21.9,7 -33.302,7.3 -12,0.102 -24,0 -36,0.102 -0.6,-13.302 -0.1,-26.602 -0.3,-39.9 0,-34.7 0,-69.3 0.102,-104 H 676 c 18.6,0.4 37.5,6.8 51,20 12.1,11.7 18.9,28.2 20,44.9 1.1,16.298 -1.9,33.198 -10.5,47.198 z m 402.1,23.1 c -22.6,-54.9 -45.1,-109.9 -67.898,-164.7 -2.102,-5.5 -4.301,-11.1 -6.801,-16.4 -18.601,-0.3 -37.199,-0.3 -55.801,0 -31.8,76.5 -63.6,153 -95.398,229.4 -1,2.5 -2.2,4.9 -2.7,7.5 h 57.5 c 5.7,-15.8 11.8,-31.4 17.5,-47.2 32.6,-0.5 65.3,-0.1 98,-0.2 1.7,-0.5 2.2,1.302 2.6,2.5 5.5,15 11.102,29.9 16.5,44.9 h 59.302 c -7.204,-18.8 -15.204,-37.2 -22.804,-55.8 z m -138.4,-33.5 c -0.3,-2.102 1,-3.9 1.6,-5.8 10.9,-28.5 22.102,-57 32.9,-85.5 0.2,-0.102 0.6,-0.2 0.8,-0.2 11.3,30 22.8,59.898 34.2,89.898 0,0.4 0.1,1.2 0.1,1.602 -23.2,-0.2 -46.4,-0.2 -69.6,0 z"
     id="path2"
     inkscape:connector-curvature="0"
     style="stroke:#000000;stroke-width:0.094" />
  <path
     style="fill:#ffffff;stroke-width:3.71751904"
     d="m 566.12403,-333.6794 -30.59187,-30.7516 30.75162,-30.5919 30.75162,-30.5919 30.59186,30.7516 30.59188,30.7517 -30.75162,30.5918 -30.75162,30.5919 z"
     id="path12"
     inkscape:connector-curvature="0" />
  <path
     style="fill:#ffffff;stroke-width:3.71751904"
     d="m 693.52858,-332.6749 -29.5683,-29.7428 31.43439,-31.5985 31.4344,-31.5986 30.75162,30.5919 30.75162,30.5919 -30.58967,30.7494 c -16.82432,16.9121 -31.50229,30.7494 -32.61772,30.7494 -1.11542,0 -15.33378,-13.3842 -31.59634,-29.7427 z"
     id="path14"
     inkscape:connector-curvature="0" />
  <path
     style="fill:#ffffff;stroke-width:3.71751904"
     d="m 823.8094,-332.5063 -29.40064,-29.5741 29.48785,-31.2295 29.48786,-31.2294 31.54194,31.033 31.54194,31.0329 -29.59597,29.7706 c -16.27778,16.3738 -30.5109,29.7706 -31.62915,29.7706 -1.11825,0 -15.26347,-13.3084 -31.43383,-29.5741 z"
     id="path16"
     inkscape:connector-curvature="0" />
  <path
     style="fill:#ffffff;stroke-width:3.71751904"
     d="m 696.2372,-203.5662 -30.59187,-30.7517 30.75162,-30.5918 30.75162,-30.5919 30.59187,30.7516 30.59187,30.7516 -30.75162,30.5919 -30.75162,30.5919 z"
     id="path18"
     inkscape:connector-curvature="0" />
</svg>
